PathFileType	4	(x/y/z)	S06_PSF_T06
DataRate	CameraRate	NumFrames	NumMarkers	Units	OrigDataRate	OrigDataStartFrame	OrigNumFrames
240	240	5	51	mm	240	368	420
Frame#	Time	Sternum			R.Acromium			L.Acromium			Top.Head			R.ASIS			L.ASIS			R.PSIS			L.PSIS			R.Great.Tro			L.Great.Tro			R.Iliac.Crest			L.Iliac.Crest			V.Sacral			R.Thigh.Upper.Post			R.Thigh.Lower.Ant			R.Thigh.Lower.Post			R.Thigh.Upper.Ant			R.Knee.Lat			R.Knee.Med			R.Shank.Upper.Post			R.Shank.Lower.Ant			R.Shank.Lower.Post			R.Shank.Upper.Ant			R.Ankle.Lat			R.Ankle.Med			R.Heel.Upper			R.Heel.Med			R.Heel.Lat			R.Toe.Lat			R.Toe.Med			R.Toe.Tip			L.Thigh.Upper.Post			L.Thigh.Lower.Ant			L.Thigh.Lower.Post			L.Thigh.Upper.Ant			L.Knee.Lat			L.Knee.Med			L.Shank.Upper.Post			L.Shank.Lower.Ant			L.Shank.Lower.Post			L.Shank.Upper.Ant			L.Ankle.Lat			L.Ankle.Med			L.Heel.Upper			L.Heel.Med			L.Heel.Lat			L.Toe.Lat			L.Toe.Med			L.Toe.Tip			Cervical.Spine			Back			
		X1	Y1	Z1	X2	Y2	Z2	X3	Y3	Z3	X4	Y4	Z4	X5	Y5	Z5	X6	Y6	Z6	X7	Y7	Z7	X8	Y8	Z8	X9	Y9	Z9	X10	Y10	Z10	X11	Y11	Z11	X12	Y12	Z12	X13	Y13	Z13	X14	Y14	Z14	X15	Y15	Z15	X16	Y16	Z16	X17	Y17	Z17	X18	Y18	Z18	X19	Y19	Z19	X20	Y20	Z20	X21	Y21	Z21	X22	Y22	Z22	X23	Y23	Z23	X24	Y24	Z24	X25	Y25	Z25	X26	Y26	Z26	X27	Y27	Z27	X28	Y28	Z28	X29	Y29	Z29	X30	Y30	Z30	X31	Y31	Z31	X32	Y32	Z32	X33	Y33	Z33	X34	Y34	Z34	X35	Y35	Z35	X36	Y36	Z36	X37	Y37	Z37	X38	Y38	Z38	X39	Y39	Z39	X40	Y40	Z40	X41	Y41	Z41	X42	Y42	Z42	X43	Y43	Z43	X44	Y44	Z44	X45	Y45	Z45	X46	Y46	Z46	X47	Y47	Z47	X48	Y48	Z48	X49	Y49	Z49	X50	Y50	Z50	X51	Y51	Z51	

368	1.5292	478.29	1290.9	327.44	356.93	1498	494.97	348.56	1500.8	142.57	395.6	1815.6	319.92	422.63	1057.8	450.55	430.46	1052.9	199.29	226.17	1079	357.22	227.11	1083.9	276.45	373.62	986.76	502.37	327	982.61	145.62	340.29	1133.1	481.14	364.41	1128.3	162.83	212.62	1047.3	319.31	475.91	758.57	494.9	556.96	706.15	459.44	498.69	673.33	476.61	534.97	793.58	471.99	555.93	580.51	466.25	558.14	582.7	337.84	497.09	360.52	474.32	550.06	291.63	454.28	486.09	284.42	462.94	560.62	366.74	465.46	503.26	151.01	441.95	519.49	155.66	356.65	439.16	108.62	392.33	447.33	76.1	363.89	443.59	79.123	429.01	617.75	63.83	476.34	647.61	65.762	360.03	711.62	81.737	406.29	354.21	722.68	176.43	392.29	637.14	235.65	323.26	639.13	196.56	417.95	726.04	210.58	290.44	545.51	215.63	319.59	551.96	334.66	208.69	324.81	233.95	263	254.36	238.08	193.22	255.41	254.6	274.31	323.27	223.9	219.43	112.13	258.82	231.3	131.61	344.1	137.72	76.956	300.66	139.59	47.801	331.46	142	52.981	269.72	321.54	44.689	233.5	339.76	41.265	354.05	413.22	51.451	300.56	298.68	1553.2	320.31	235.5	1282.4	318.64
369	1.5333	483.72	1290.3	327.75	362.06	1497.4	495.13	354.18	1500.2	142.74	400.97	1815	320.13	427.95	1057.2	450.76	435.91	1052.2	199.56	231.6	1078.4	357.15	232.63	1083.3	276.34	378.73	986.03	502.51	332.35	982.08	145.69	345.56	1132.5	481.25	370.07	1127.7	162.93	218.08	1046.7	319.24	480.02	757.44	494.74	561.06	704.86	459.42	502.61	672.18	476.32	539.27	792.33	472.03	560.4	579.52	465.94	562.61	581.77	337.55	507.14	357.97	473.55	561.88	290.63	453.42	498.12	281.64	461.92	570.49	365.89	464.7	518.83	148.69	440.57	535.13	154.06	355.36	455.97	104.86	390.7	465.09	72.728	362.12	461.12	75.327	427.19	635.44	64.182	474.96	665.45	67.493	358.77	728.93	84.833	405.32	357.6	722.32	176.67	395.2	636.43	235.79	326.14	638.93	196.71	421.39	725.25	210.82	292.55	545.44	215.69	321.67	551.68	334.75	209.73	325.06	234.11	263.76	254.4	238.2	194.02	255.74	254.79	275.34	323.26	224	219.64	112.3	259.01	231.64	131.74	344.27	137.82	77.085	300.87	139.67	47.888	331.63	142.06	53.163	269.89	321.57	44.722	233.55	339.85	41.128	354.11	413.32	51.21	300.59	304.07	1552.6	320.4	240.94	1281.7	318.59
370	1.5375	489.16	1289.7	328.06	367.19	1496.7	495.3	359.8	1499.6	142.91	406.34	1814.4	320.34	433.28	1056.5	450.98	441.39	1051.4	199.83	237.06	1077.8	357.07	238.17	1082.7	276.24	383.84	985.27	502.66	337.73	981.52	145.76	350.86	1131.8	481.36	375.77	1127.1	163.04	223.58	1046.2	319.16	484.06	756.23	494.64	565.06	703.44	459.43	506.42	670.94	476.06	543.5	790.97	472.11	564.73	578.43	465.62	566.94	580.73	337.24	517.04	355.49	472.73	573.52	289.71	452.56	510	278.96	460.85	580.18	365.08	463.96	534.29	146.55	439.16	550.66	152.66	354.05	472.69	101.32	389.03	482.76	69.603	360.31	478.59	71.751	425.33	652.95	64.773	473.57	683.09	69.512	357.51	745.98	88.19	404.36	361.05	721.93	176.9	398.19	635.71	235.93	329.09	638.71	196.86	424.87	724.43	211.05	294.74	545.35	215.75	323.83	551.39	334.84	210.83	325.32	234.26	264.56	254.44	238.32	194.85	256.07	254.97	276.42	323.24	224.09	219.87	112.47	259.19	231.99	131.87	344.43	137.93	77.225	301.09	139.76	47.984	331.8	142.12	53.354	270.07	321.6	44.755	233.61	339.94	40.992	354.18	413.43	50.958	300.62	309.46	1552	320.5	246.4	1281	318.54
371	1.5417	494.62	1289	328.37	372.33	1496	495.48	365.42	1499	143.09	411.71	1813.8	320.56	438.64	1055.8	451.21	446.9	1050.6	200.11	242.54	1077.2	357	243.74	1082.1	276.15	388.96	984.48	502.82	343.13	980.94	145.83	356.17	1131.1	481.47	381.48	1126.4	163.15	229.09	1045.6	319.09	488.03	754.93	494.58	568.96	701.93	459.47	510.13	669.62	475.85	547.67	789.51	472.23	568.9	577.24	465.31	571.13	579.6	336.93	526.76	353.06	471.87	584.97	288.89	451.72	521.73	276.39	459.74	589.66	364.31	463.22	549.61	144.61	437.73	566.04	151.47	352.75	489.32	98.003	387.34	500.33	66.728	358.47	495.95	68.402	423.45	670.26	65.604	472.18	700.49	71.817	356.26	762.76	91.804	403.42	364.56	721.52	177.1	401.24	634.98	236.04	332.12	638.46	196.99	428.41	723.61	211.25	297.01	545.24	215.8	326.08	551.08	334.91	211.99	325.59	234.41	265.4	254.47	238.44	195.73	256.42	255.15	277.55	323.21	224.17	220.1	112.65	259.38	232.36	132.02	344.6	138.03	77.377	301.32	139.85	48.092	331.99	142.19	53.554	270.25	321.64	44.787	233.67	340.03	40.859	354.24	413.54	50.695	300.66	314.86	1551.4	320.61	251.88	1280.3	318.5
372	1.5458	500.09	1288.4	328.68	377.48	1495.3	495.67	371.04	1498.3	143.28	417.07	1813.1	320.79	444.02	1055.1	451.45	452.44	1049.8	200.39	248.05	1076.5	356.93	249.34	1081.4	276.06	394.1	983.65	502.99	348.56	980.32	145.9	361.49	1130.4	481.59	387.22	1125.6	163.26	234.64	1045	319.01	491.95	753.56	494.58	572.8	700.31	459.55	513.75	668.23	475.66	551.8	787.97	472.38	572.93	575.96	465	575.19	578.37	336.6	536.32	350.71	470.95	596.2	288.15	450.89	533.27	273.93	458.57	598.93	363.59	462.5	564.76	142.85	436.3	581.25	150.49	351.45	505.81	94.903	385.65	517.76	64.105	356.61	513.19	65.283	421.55	687.35	66.671	470.79	717.62	74.399	355.01	779.24	95.667	402.49	368.12	721.08	177.29	404.36	634.24	236.14	335.21	638.19	197.11	431.99	722.77	211.43	299.37	545.11	215.85	328.42	550.75	334.97	213.21	325.86	234.55	266.29	254.5	238.55	196.66	256.78	255.32	278.75	323.18	224.26	220.35	112.85	259.56	232.74	132.19	344.76	138.14	77.545	301.55	139.94	48.216	332.18	142.26	53.767	270.44	321.67	44.818	233.74	340.13	40.729	354.31	413.66	50.423	300.69	320.27	1550.7	320.73	257.38	1279.6	318.46
